<svg width="22" height="32" viewBox="0 0 22 32" fill="none" xmlns="http://www.w3.org/2000/svg">
<path fill-rule="evenodd" clip-rule="evenodd" d="M20.8529 24.4581C22.2337 23.27 22.39 21.1875 21.2019 19.8067L14.7481 12.306C14.1777 11.6428 13.3669 11.2336 12.4947 11.1681C11.6225 11.1026 10.7596 11.3864 10.0967 11.9571L9.05295 12.8552C11.6194 14.304 13.622 17.2265 13.8023 19.7861C13.9825 22.3457 12.2886 23.8032 9.78452 23.2432C7.28046 22.6828 4.6897 20.2667 3.63974 17.5125L2.59601 18.4106C1.93304 18.9813 1.5236 19.7917 1.45811 20.6642C1.39263 21.5365 1.6764 22.399 2.24707 23.062L8.70057 30.5626C9.27123 31.2259 10.0817 31.6351 10.9542 31.7005C11.8264 31.766 12.689 31.4822 13.3523 30.9119L20.8529 24.4581V24.4581Z" fill="#0053B9"/>
<path fill-rule="evenodd" clip-rule="evenodd" d="M12.2153 9.06673C14.7193 9.6268 17.3101 12.0432 18.36 14.7971L19.4038 13.899C20.7846 12.7109 20.9408 10.6284 19.7527 9.2476L13.2992 1.74694C12.7285 1.08397 11.9181 0.674528 11.0455 0.609042C10.1733 0.543868 9.31079 0.827329 8.64782 1.39799L1.14716 7.85181C0.48388 8.42216 0.0747474 9.23295 0.0092613 10.1052C-0.0562248 10.9774 0.227548 11.8399 0.797901 12.5032L7.25172 20.0039C7.82238 20.6668 8.63285 21.0763 9.50507 21.1418C10.3776 21.2072 11.2401 20.9235 11.9031 20.3528L12.9468 19.4547C10.3804 18.0056 8.37777 15.083 8.19752 12.5238C8.01728 9.96421 9.71119 8.50667 12.2153 9.06673V9.06673Z" fill="#E31E24"/>
</svg>
