<svg width="226" height="226" viewBox="0 0 226 226" fill="none" xmlns="http://www.w3.org/2000/svg">
<path d="M138.981 181C127.434 201 98.5663 201 87.0192 181L41.1199 101.5C29.5729 81.5 44.0067 56.5 67.1007 56.5L158.899 56.5C181.993 56.5 196.427 81.5 184.88 101.5L138.981 181Z" fill="black" fill-opacity="0.63"/>
<path d="M87.2358 180.875L41.3364 101.375C29.8856 81.5417 44.1991 56.75 67.1007 56.75L158.899 56.75C181.801 56.75 196.114 81.5416 184.664 101.375L138.764 180.875C127.314 200.708 98.6865 200.708 87.2358 180.875Z" stroke="white" stroke-opacity="0.46" stroke-width="0.5"/>
<path d="M56.271 91V70.98H73.043C75.115 70.98 76.7204 71.5027 77.859 72.548C79.0164 73.5933 79.595 75.18 79.595 77.308C79.595 79.1187 79.175 80.5373 78.335 81.564C77.495 82.5907 76.3004 83.2347 74.751 83.496L79.371 91H74.275L69.991 83.636H60.751V91H56.271ZM72.511 74.62H60.751V79.968L72.511 79.996C73.3323 79.996 73.9577 79.7907 74.387 79.38C74.835 78.9693 75.059 78.2787 75.059 77.308C75.059 76.3187 74.835 75.628 74.387 75.236C73.9577 74.8253 73.3323 74.62 72.511 74.62ZM87.1305 91C85.4878 91 84.2838 90.5893 83.5185 89.768C82.7718 88.9467 82.3985 87.8827 82.3985 86.576V76.58H86.4585V86.1C86.4585 87.22 87.0185 87.78 88.1385 87.78H93.9625C95.0825 87.78 95.6425 87.22 95.6425 86.1V76.58H99.7025V86.576C99.7025 87.8827 99.3199 88.9467 98.5545 89.768C97.8078 90.5893 96.6132 91 94.9705 91H87.1305ZM102.16 91.14V87.92H115.88C116.664 87.92 117.056 87.4813 117.056 86.604C117.056 85.7453 116.664 85.316 115.88 85.316H107.004C105.343 85.316 104.083 84.9427 103.224 84.196C102.366 83.4307 101.936 82.3387 101.936 80.92C101.936 79.4827 102.366 78.3813 103.224 77.616C104.102 76.832 105.362 76.44 107.004 76.44H119.772V79.66H107.2C106.398 79.66 105.996 80.052 105.996 80.836C105.996 81.228 106.108 81.536 106.332 81.76C106.556 81.984 106.846 82.096 107.2 82.096H116.608C118.064 82.096 119.175 82.4787 119.94 83.244C120.724 83.9907 121.116 85.0827 121.116 86.52C121.116 87.976 120.724 89.1147 119.94 89.936C119.156 90.7387 118.046 91.14 116.608 91.14H102.16ZM123.499 91V70.98H127.559V91H123.499ZM134.472 91C132.96 91 131.803 90.6173 131 89.852C130.198 89.0867 129.796 87.9947 129.796 86.576C129.796 85.176 130.198 84.0933 131 83.328C131.803 82.5627 132.96 82.18 134.472 82.18H145.224V81.508C145.224 80.3693 144.664 79.8 143.544 79.8H131.672V76.58H144.608C146.307 76.58 147.511 76.972 148.22 77.756C148.93 78.5213 149.284 79.604 149.284 81.004V91H134.472ZM135.2 87.78H145.224V85.4H135.2C134.846 85.4 134.566 85.512 134.36 85.736C134.174 85.9413 134.08 86.2213 134.08 86.576C134.08 86.9307 134.174 87.22 134.36 87.444C134.566 87.668 134.846 87.78 135.2 87.78ZM152.374 91V76.58H164.946C166.589 76.58 167.784 76.9907 168.53 77.812C169.296 78.6147 169.678 79.6787 169.678 81.004V91H165.618V81.48C165.618 80.36 165.058 79.8 163.938 79.8H156.434V91H152.374ZM87.8941 125V105.036H92.3741V113.184H99.0381L105.618 105.036H111.19L102.958 115.004L111.19 125H105.618L99.0101 116.824H92.3741V125H87.8941ZM113.013 125V110.58H117.073V125H113.013ZM112.985 108.2V105.036H117.101V108.2H112.985ZM137.902 125V104.98H133.842V125H137.902ZM137.202 125V121.78H127.542C126.329 121.78 125.395 121.453 124.742 120.8C124.107 120.128 123.79 119.129 123.79 117.804C123.79 116.46 124.107 115.461 124.742 114.808C125.395 114.136 126.329 113.8 127.542 113.8H136.922V110.58H127.542C125.041 110.58 123.09 111.196 121.69 112.428C120.29 113.66 119.59 115.452 119.59 117.804C119.59 120.137 120.29 121.92 121.69 123.152C123.09 124.384 125.041 125 127.542 125H137.202Z" fill="url(#paint0_linear_140_11)"/>
<path d="M106.869 154.171C106.869 168.684 95.1031 180.45 80.5896 180.45C66.0761 180.45 54.3105 168.684 54.3105 154.171C54.3105 139.657 66.0761 127.892 80.5896 127.892C95.1031 127.892 106.869 139.657 106.869 154.171Z" fill="url(#paint1_linear_140_11)"/>
<path d="M56.0633 163.807C-28.031 197.093 188.325 124.387 105.988 147.165" stroke="url(#paint2_linear_140_11)"/>
<defs>
<linearGradient id="paint0_linear_140_11" x1="231.822" y1="38.7209" x2="-29.2171" y2="135.078" gradientUnits="userSpaceOnUse">
<stop offset="0.293726" stop-color="#DBD7B5"/>
<stop offset="0.847191" stop-color="#C8BA43" stop-opacity="0"/>
</linearGradient>
<linearGradient id="paint1_linear_140_11" x1="140.156" y1="120.008" x2="76.2098" y2="162.93" gradientUnits="userSpaceOnUse">
<stop stop-color="#33A360" stop-opacity="0"/>
<stop offset="1" stop-color="#525252"/>
</linearGradient>
<linearGradient id="paint2_linear_140_11" x1="276.807" y1="91.1007" x2="17.5198" y2="177.822" gradientUnits="userSpaceOnUse">
<stop offset="0.520529" stop-color="#A5A5A5" stop-opacity="0.33"/>
<stop offset="0.995291" stop-color="#4E3838"/>
</linearGradient>
</defs>
</svg>
